<svg width="165" height="32" viewBox="0 0 165 32" fill="none" xmlns="http://www.w3.org/2000/svg">
<path d="M3 12H0V16H3V28H8V16H11.642L12 12H8V10.333C8 9.378 8.192 9 9.115 9H12V4H8.192C4.596 4 3 5.583 3 8.615V12Z" fill="#3C5A9A"/>
<path d="M61.421 10.219V22H59.772V11.63H54.111V22H52.462V10.219H61.421ZM72.0497 17.58C72.0497 18.2827 71.9477 18.9173 71.7437 19.484C71.5397 20.0507 71.2507 20.538 70.8767 20.946C70.5141 21.354 70.0777 21.6713 69.5677 21.898C69.0577 22.1133 68.5024 22.221 67.9017 22.221C67.3011 22.221 66.7457 22.1133 66.2357 21.898C65.7257 21.6713 65.2837 21.354 64.9097 20.946C64.5471 20.538 64.2637 20.0507 64.0597 19.484C63.8557 18.9173 63.7537 18.2827 63.7537 17.58C63.7537 16.8887 63.8557 16.2597 64.0597 15.693C64.2637 15.115 64.5471 14.622 64.9097 14.214C65.2837 13.806 65.7257 13.4943 66.2357 13.279C66.7457 13.0523 67.3011 12.939 67.9017 12.939C68.5024 12.939 69.0577 13.0523 69.5677 13.279C70.0777 13.4943 70.5141 13.806 70.8767 14.214C71.2507 14.622 71.5397 15.115 71.7437 15.693C71.9477 16.2597 72.0497 16.8887 72.0497 17.58ZM70.4007 17.58C70.4007 16.5827 70.1741 15.795 69.7207 15.217C69.2787 14.6277 68.6724 14.333 67.9017 14.333C67.1311 14.333 66.5191 14.6277 66.0657 15.217C65.6237 15.795 65.4027 16.5827 65.4027 17.58C65.4027 18.5773 65.6237 19.3707 66.0657 19.96C66.5191 20.538 67.1311 20.827 67.9017 20.827C68.6724 20.827 69.2787 20.538 69.7207 19.96C70.1741 19.3707 70.4007 18.5773 70.4007 17.58ZM73.1861 20.708H74.1381C74.5121 20.164 74.8067 19.603 75.0221 19.025C75.2487 18.447 75.4187 17.852 75.5321 17.24C75.6454 16.6167 75.7191 15.9707 75.7531 15.302C75.7871 14.622 75.8097 13.908 75.8211 13.16H81.6181V20.708H82.8081V24.465H81.3121V22H74.6821V24.465H73.1861V20.708ZM80.0371 20.708V14.486H77.2661C77.2547 15.0187 77.2264 15.557 77.1811 16.101C77.1357 16.6337 77.0621 17.1663 76.9601 17.699C76.8581 18.2203 76.7107 18.736 76.5181 19.246C76.3367 19.7447 76.1044 20.232 75.8211 20.708H80.0371ZM84.0242 17.597C84.0242 16.815 84.1376 16.135 84.3642 15.557C84.5909 14.9677 84.8912 14.4803 85.2652 14.095C85.6392 13.7097 86.0699 13.4207 86.5572 13.228C87.0446 13.0353 87.5432 12.939 88.0532 12.939C89.2432 12.939 90.1556 13.313 90.7902 14.061C91.4249 14.7977 91.7422 15.9253 91.7422 17.444C91.7422 17.512 91.7422 17.6027 91.7422 17.716C91.7422 17.818 91.7366 17.9143 91.7252 18.005H85.6732C85.7412 18.923 86.0076 19.62 86.4722 20.096C86.9369 20.572 87.6622 20.81 88.6482 20.81C89.2036 20.81 89.6682 20.7647 90.0422 20.674C90.4276 20.572 90.7166 20.4757 90.9092 20.385L91.1302 21.711C90.9376 21.813 90.5976 21.9207 90.1102 22.034C89.6342 22.1473 89.0902 22.204 88.4782 22.204C87.7076 22.204 87.0389 22.0907 86.4722 21.864C85.9169 21.626 85.4579 21.303 85.0952 20.895C84.7326 20.487 84.4606 20.0053 84.2792 19.45C84.1092 18.8833 84.0242 18.2657 84.0242 17.597ZM90.0932 16.73C90.1046 16.016 89.9232 15.4323 89.5492 14.979C89.1866 14.5143 88.6822 14.282 88.0362 14.282C87.6736 14.282 87.3506 14.3557 87.0672 14.503C86.7952 14.639 86.5629 14.8203 86.3702 15.047C86.1776 15.2737 86.0246 15.5343 85.9112 15.829C85.8092 16.1237 85.7412 16.424 85.7072 16.73H90.0932ZM97.0903 14.486C97.0903 14.86 97.079 15.2623 97.0563 15.693C97.045 16.1123 97.0167 16.5373 96.9713 16.968C96.926 17.3873 96.8637 17.8067 96.7843 18.226C96.705 18.634 96.603 19.0193 96.4783 19.382C96.3537 19.7447 96.195 20.0847 96.0023 20.402C95.821 20.7193 95.5943 21.0027 95.3223 21.252C95.0503 21.49 94.733 21.694 94.3703 21.864C94.0077 22.0227 93.5827 22.1247 93.0953 22.17L92.8743 20.844C93.4297 20.7307 93.866 20.521 94.1833 20.215C94.512 19.909 94.7727 19.535 94.9653 19.093C95.1353 18.7077 95.26 18.2713 95.3393 17.784C95.4187 17.2967 95.4753 16.7923 95.5093 16.271C95.5433 15.7383 95.5603 15.2057 95.5603 14.673C95.5717 14.1403 95.5773 13.636 95.5773 13.16H101.459V22H99.8783V14.486H97.0903ZM111.602 13.16V22H110.072V15.268C109.732 15.6987 109.358 16.203 108.95 16.781C108.542 17.359 108.134 17.9597 107.726 18.583C107.318 19.195 106.927 19.8013 106.553 20.402C106.179 21.0027 105.856 21.5353 105.584 22H104.173V13.16H105.703V19.518C105.998 19.0307 106.332 18.498 106.706 17.92C107.08 17.3307 107.466 16.7527 107.862 16.186C108.27 15.608 108.673 15.0583 109.069 14.537C109.477 14.0043 109.857 13.5453 110.208 13.16H111.602ZM120.556 13.16V14.486H117.683V22H116.102V14.486H113.229V13.16H120.556ZM125.535 20.895C126.204 20.895 126.731 20.7647 127.116 20.504C127.502 20.2433 127.694 19.824 127.694 19.246C127.694 18.9627 127.638 18.719 127.524 18.515C127.411 18.311 127.252 18.1467 127.048 18.022C126.856 17.886 126.629 17.7897 126.368 17.733C126.108 17.665 125.83 17.631 125.535 17.631C125.229 17.631 124.912 17.6423 124.583 17.665C124.266 17.6763 123.994 17.7103 123.767 17.767V20.81C123.835 20.8213 123.937 20.8327 124.073 20.844C124.209 20.8553 124.357 20.8667 124.515 20.878C124.685 20.878 124.855 20.8837 125.025 20.895C125.207 20.895 125.377 20.895 125.535 20.895ZM122.186 21.813V13.16H123.767V16.543C123.858 16.5203 123.977 16.4977 124.124 16.475C124.283 16.4523 124.447 16.4297 124.617 16.407C124.799 16.3843 124.986 16.3673 125.178 16.356C125.371 16.3447 125.552 16.339 125.722 16.339C126.21 16.339 126.669 16.3957 127.099 16.509C127.53 16.611 127.904 16.781 128.221 17.019C128.55 17.2457 128.811 17.546 129.003 17.92C129.196 18.2827 129.292 18.719 129.292 19.229C129.292 19.7617 129.202 20.215 129.02 20.589C128.839 20.963 128.578 21.269 128.238 21.507C127.898 21.745 127.49 21.915 127.014 22.017C126.55 22.1303 126.028 22.187 125.45 22.187C124.884 22.187 124.328 22.153 123.784 22.085C123.24 22.0283 122.708 21.9377 122.186 21.813ZM135.01 22.204C134.296 22.204 133.667 22.0907 133.123 21.864C132.59 21.6373 132.137 21.32 131.763 20.912C131.4 20.504 131.128 20.0223 130.947 19.467C130.765 18.9003 130.675 18.277 130.675 17.597C130.675 16.917 130.771 16.2937 130.964 15.727C131.168 15.1603 131.451 14.673 131.814 14.265C132.176 13.8457 132.618 13.5227 133.14 13.296C133.672 13.058 134.262 12.939 134.908 12.939C135.304 12.939 135.701 12.973 136.098 13.041C136.494 13.109 136.874 13.2167 137.237 13.364L136.88 14.707C136.642 14.5937 136.364 14.503 136.047 14.435C135.741 14.367 135.412 14.333 135.061 14.333C134.177 14.333 133.497 14.6107 133.021 15.166C132.556 15.7213 132.324 16.5317 132.324 17.597C132.324 18.073 132.375 18.5093 132.477 18.906C132.59 19.3027 132.76 19.6427 132.987 19.926C133.225 20.2093 133.525 20.4303 133.888 20.589C134.25 20.7363 134.692 20.81 135.214 20.81C135.633 20.81 136.013 20.7703 136.353 20.691C136.693 20.6117 136.959 20.5267 137.152 20.436L137.373 21.762C137.282 21.8187 137.152 21.8753 136.982 21.932C136.812 21.9773 136.619 22.017 136.404 22.051C136.188 22.0963 135.956 22.1303 135.707 22.153C135.469 22.187 135.236 22.204 135.01 22.204ZM142.725 18.566C142.555 18.566 142.391 18.566 142.232 18.566C142.073 18.5547 141.92 18.5433 141.773 18.532C141.41 19.076 141.059 19.6597 140.719 20.283C140.39 20.895 140.096 21.4673 139.835 22H138.237C138.373 21.6713 138.532 21.337 138.713 20.997C138.894 20.6457 139.076 20.3057 139.257 19.977C139.45 19.6483 139.642 19.3367 139.835 19.042C140.028 18.7473 140.209 18.481 140.379 18.243C140.062 18.1297 139.801 17.9937 139.597 17.835C139.393 17.665 139.229 17.478 139.104 17.274C138.979 17.07 138.889 16.8547 138.832 16.628C138.787 16.39 138.764 16.152 138.764 15.914C138.764 15.4153 138.855 14.979 139.036 14.605C139.229 14.231 139.489 13.925 139.818 13.687C140.147 13.4377 140.532 13.2507 140.974 13.126C141.427 13.0013 141.92 12.939 142.453 12.939C143.201 12.939 143.836 12.973 144.357 13.041C144.878 13.109 145.315 13.1883 145.666 13.279V22H144.102V18.566H142.725ZM144.102 14.333C143.977 14.3103 143.768 14.2877 143.473 14.265C143.19 14.2423 142.861 14.231 142.487 14.231C141.841 14.231 141.32 14.367 140.923 14.639C140.526 14.8997 140.328 15.319 140.328 15.897C140.328 16.4637 140.532 16.8547 140.94 17.07C141.348 17.2853 141.875 17.393 142.521 17.393H144.102V14.333Z" fill="#1E1E1E"/>
<path d="M38 8V0.5H164V31.5H38V24V23.8023L37.8648 23.658L30.6854 16L37.8648 8.34197L38 8.19772V8Z" stroke="#1E1E1E"/>
</svg>
